<svg xmlns="http://www.w3.org/2000/svg" width="18" height="18" viewBox="0 0 18 18" fill="none">
  <path d="M8.894 2.3899C8.95888 2.33878 9.04539 2.33878 9.11027 2.3899L15.8581 7.70589C15.897 7.73996 15.923 7.78682 15.923 7.83793V17.635C15.923 17.6819 15.884 17.7202 15.8365 17.7202H11.1649C11.1173 17.7202 11.0784 17.6819 11.0784 17.635V11.6716C11.0784 11.6247 11.0395 11.5864 10.9919 11.5864H7.0124C6.96482 11.5864 6.92589 11.6247 6.92589 11.6716V17.635C6.92589 17.6819 6.88696 17.7202 6.83937 17.7202H2.16781C2.12023 17.7202 2.0813 17.6819 2.0813 17.635V7.83793C2.0813 7.78682 2.10725 7.7357 2.14618 7.70589L8.894 2.3899Z" fill="white" fill-opacity="0.5"/>
  <path d="M0.234344 6.65366L8.40957 0.204466C8.57394 0.0724149 8.78589 0 9.00216 0C9.21844 0 9.43039 0.0724149 9.59476 0.204466L13.1547 3.05421V1.25661C13.1547 1.20976 13.1936 1.17142 13.2412 1.17142H15.8365C15.8841 1.17142 15.923 1.20976 15.923 1.25661V5.18406L17.77 6.67921C17.9041 6.78571 17.9906 6.94332 17.9992 7.1137C18.0079 7.28409 17.943 7.45022 17.8219 7.56949C17.7094 7.68024 17.558 7.74414 17.3937 7.74414C17.2552 7.74414 17.1212 7.69728 17.013 7.61209L9.05839 1.30773C9.03677 1.29069 9.01946 1.29069 9.00216 1.29069C8.98486 1.29069 8.96756 1.29495 8.94593 1.30773L0.991308 7.58653C0.883171 7.67173 0.749081 7.71858 0.610664 7.71858C0.450621 7.71858 0.299227 7.65895 0.182438 7.54393C0.0569992 7.42466 -0.00788498 7.25853 0.000766754 7.08815C0.0137424 6.91776 0.0959282 6.76015 0.234344 6.65366Z" fill="white" fill-opacity="0.5"/>
</svg>