<svg xmlns="http://www.w3.org/2000/svg" width="27" height="21" viewBox="0 0 27 21" fill="none">
  <path d="M7.425 10.5C9.28589 10.5 10.8 9.02795 10.8 7.21875C10.8 5.40955 9.28589 3.9375 7.425 3.9375C5.56411 3.9375 4.05 5.40955 4.05 7.21875C4.05 9.02795 5.56411 10.5 7.425 10.5ZM22.275 5.25H12.825C12.4521 5.25 12.15 5.54367 12.15 5.90625V11.8125H2.7V3.28125C2.7 2.91867 2.39794 2.625 2.025 2.625H0.675C0.302063 2.625 0 2.91867 0 3.28125V17.7188C0 18.0813 0.302063 18.375 0.675 18.375H2.025C2.39794 18.375 2.7 18.0813 2.7 17.7188V15.75H24.3V17.7188C24.3 18.0813 24.6021 18.375 24.975 18.375H26.325C26.6979 18.375 27 18.0813 27 17.7188V9.84375C27 7.30652 24.8847 5.25 22.275 5.25Z" fill="#212A50" fill-opacity="0.5"/>
</svg>