<svg xmlns="http://www.w3.org/2000/svg" width="30" height="30" viewBox="0 0 30 30" fill="none">
  <path d="M30 2.05262V28.3231C30 29.2263 29.2567 29.9514 28.346 29.9514H20.6987V18.5203H24.596L25.1786 14.0639H20.692V11.216C20.692 9.92388 21.0536 9.0471 22.9353 9.0471H25.3326V5.05873C24.9174 5.00599 23.4978 4.88074 21.8371 4.88074C18.3817 4.88074 16.0112 6.95733 16.0112 10.7743V14.0639H12.1004V18.5203H16.0112V29.958H1.65402C0.743304 29.958 0 29.2263 0 28.3297V2.05262C0 1.15607 0.743304 0.424316 1.65402 0.424316H28.3393C29.2567 0.424316 30 1.15607 30 2.05262Z" fill="white" fill-opacity="0.75"/>
</svg>