<svg xmlns="http://www.w3.org/2000/svg" width="30" height="30" viewBox="0 0 30 30" fill="none">
  <path d="M26.7857 0.424316H3.21429C1.43973 0.424316 0 1.84167 0 3.58864V26.7937C0 28.5407 1.43973 29.958 3.21429 29.958H26.7857C28.5603 29.958 30 28.5407 30 26.7937V3.58864C30 1.84167 28.5603 0.424316 26.7857 0.424316ZM10.9821 21.7835C7.27902 21.7835 4.28571 18.8367 4.28571 15.1912C4.28571 11.5456 7.27902 8.59882 10.9821 8.59882C12.7902 8.59882 14.2969 9.24487 15.4687 10.326L13.654 12.0466C13.1585 11.5786 12.2946 11.0314 10.9888 11.0314C8.70536 11.0314 6.84375 12.8904 6.84375 15.1978C6.84375 17.4985 8.70536 19.3641 10.9888 19.3641C13.6406 19.3641 14.6317 17.4853 14.7924 16.5228H10.9821V14.255H17.3036C17.3705 14.5847 17.4107 14.9209 17.4107 15.3494C17.4107 19.1136 14.846 21.7835 10.9821 21.7835ZM25.7143 16.391H23.7723V18.3027H21.817V16.391H19.875V14.466H21.817V12.5542H23.7723V14.466H25.7143V16.391Z" fill="white" fill-opacity="0.75"/>
</svg>