<svg xmlns="http://www.w3.org/2000/svg" width="30" height="30" viewBox="0 0 30 30" fill="none">
  <path d="M27.8571 0.424316H2.13616C0.957589 0.424316 0 1.38021 0 2.55364V27.8287C0 29.0021 0.957589 29.958 2.13616 29.958H27.8571C29.0357 29.958 30 29.0021 30 27.8287V2.55364C30 1.38021 29.0357 0.424316 27.8571 0.424316ZM9.06696 25.7389H4.62054V11.6445H9.07366V25.7389H9.06696ZM6.84375 9.71952C5.41741 9.71952 4.26562 8.57904 4.26562 7.18147C4.26562 5.78389 5.41741 4.64341 6.84375 4.64341C8.26339 4.64341 9.42187 5.78389 9.42187 7.18147C9.42187 8.58564 8.27009 9.71952 6.84375 9.71952ZM25.7344 25.7389H21.2879V18.8829C21.2879 17.248 21.2545 15.145 18.9777 15.145C16.6607 15.145 16.3058 16.9249 16.3058 18.7642V25.7389H11.8594V11.6445H16.125V13.5694H16.1853C16.7812 12.4619 18.2344 11.2951 20.3973 11.2951C24.8973 11.2951 25.7344 14.2155 25.7344 18.0127V25.7389Z" fill="white" fill-opacity="0.75"/>
</svg>