<svg xmlns="http://www.w3.org/2000/svg" width="17" height="12" viewBox="0 0 17 12" fill="none">
  <path d="M16.1172 1.35715L11.9141 5.57181C11.8828 5.60257 11.8828 5.64872 11.9141 5.67948L14.8555 8.76357C15.0547 8.95969 15.0547 9.27502 14.8555 9.47114C14.7578 9.56727 14.625 9.61726 14.4961 9.61726C14.3672 9.61726 14.2344 9.56727 14.1367 9.47114L11.207 6.39859C11.1758 6.36782 11.125 6.36782 11.0938 6.39859L10.3789 7.11385C9.78125 7.7099 8.98828 8.04061 8.13672 8.04446C7.27344 8.0483 6.45312 7.69067 5.84766 7.08693L5.16016 6.39859C5.12891 6.36782 5.07812 6.36782 5.04688 6.39859L2.11719 9.47114C2.01953 9.56727 1.88672 9.61726 1.75781 9.61726C1.62891 9.61726 1.49609 9.56727 1.39844 9.47114C1.19922 9.27502 1.19922 8.95969 1.39844 8.76357L4.33984 5.67948C4.36719 5.64872 4.36719 5.60257 4.33984 5.57181L0.132813 1.35715C0.0820313 1.30716 0 1.34176 0 1.41098V9.84415C0 10.521 0.5625 11.0747 1.25 11.0747H15C15.6875 11.0747 16.25 10.521 16.25 9.84415V1.41098C16.25 1.34176 16.1641 1.311 16.1172 1.35715Z" fill="white" fill-opacity="0.5"/>
  <path d="M8.125 7.04102C8.70312 7.04102 9.24609 6.81798 9.65234 6.41036L15.7812 0.269181C15.5664 0.0999816 15.3008 0 15.0078 0H1.24609C0.953125 0 0.683594 0.0999816 0.472656 0.269181L6.60156 6.41036C7.00391 6.81413 7.54687 7.04102 8.125 7.04102Z" fill="white" fill-opacity="0.5"/>
</svg>