<svg xmlns="http://www.w3.org/2000/svg" width="14" height="14" viewBox="0 0 14 14" fill="none">
  <path d="M13.1148 10.5738C12.598 10.057 11.357 9.28001 10.7453 8.98821C10.0351 8.6472 9.77495 8.65423 9.27222 9.01634C8.85386 9.31868 8.58315 9.59993 8.10151 9.49446C7.61987 9.39251 6.67065 8.67181 5.74956 7.75423C4.82846 6.83313 4.11127 5.88392 4.00932 5.40227C3.90737 4.91712 4.18862 4.64993 4.48745 4.23157C4.84956 3.72884 4.8601 3.46868 4.51557 2.75852C4.22377 2.14329 3.45034 0.905791 2.93002 0.388994C2.41322 -0.127803 2.29721 -0.0153032 2.01244 0.0866499C2.01244 0.0866499 1.59057 0.2554 1.17221 0.533134C0.655411 0.877665 0.367129 1.16595 0.163223 1.59837C-0.037168 2.03079 -0.269199 2.83587 0.912052 4.93821C1.86479 6.63626 2.79994 7.92298 4.18862 9.30813L4.19213 9.31165L4.19565 9.31517C5.58432 10.7038 6.86753 11.639 8.56557 12.5917C10.6679 13.773 11.473 13.5409 11.9054 13.3406C12.3378 13.1402 12.6261 12.8519 12.9707 12.3316C13.2484 11.9132 13.4171 11.4913 13.4171 11.4913C13.5191 11.2066 13.6351 11.0906 13.1148 10.5738Z" fill="white" fill-opacity="0.5"/>
</svg>