<svg xmlns="http://www.w3.org/2000/svg" width="27" height="21" viewBox="0 0 27 21" fill="none">
  <g clip-path="url(#clip0_11_259)">
    <path d="M21.0069 9.26711L12.0681 0.576639C11.6884 0.207426 11.1733 2.73031e-06 10.6362 0H2.025C0.906609 0 0 0.881426 0 1.96875V10.3408C2.80832e-06 10.8629 0.213352 11.3637 0.593114 11.7329L9.53189 20.4234C10.3226 21.1922 11.6048 21.1922 12.3957 20.4234L21.0069 12.0513C21.7977 11.2825 21.7977 10.0359 21.0069 9.26711ZM4.725 6.5625C3.60661 6.5625 2.7 5.68107 2.7 4.59375C2.7 3.50643 3.60661 2.625 4.725 2.625C5.84339 2.625 6.75 3.50643 6.75 4.59375C6.75 5.68107 5.84339 6.5625 4.725 6.5625ZM26.4069 12.0513L17.7957 20.4234C17.0049 21.1922 15.7227 21.1922 14.9319 20.4234L14.9167 20.4086L22.2598 13.2695C22.977 12.5722 23.3719 11.6452 23.3719 10.6592C23.3719 9.67321 22.9769 8.74621 22.2598 8.04899L13.9808 0H16.0362C16.5733 2.73031e-06 17.0884 0.207426 17.4681 0.576639L26.4069 9.26711C27.1977 10.0359 27.1977 11.2825 26.4069 12.0513Z" fill="#FC715F"/>
  </g>
  <defs>
    <clipPath id="clip0_11_259">
      <rect width="27" height="21" fill="white"/>
    </clipPath>
  </defs>
</svg>