<svg xmlns="http://www.w3.org/2000/svg" width="30" height="30" viewBox="0 0 30 30" fill="none">
<path d="M26.7857 0.436523H3.21429C1.43973 0.436523 0 1.85385 0 3.6008V26.8055C0 28.5524 1.43973 29.9697 3.21429 29.9697H26.7857C28.5603 29.9697 30 28.5524 30 26.8055V3.6008C30 1.85385 28.5603 0.436523 26.7857 0.436523ZM23.5112 10.905C23.5246 11.0896 23.5246 11.2807 23.5246 11.4653C23.5246 17.1808 19.1049 23.7664 11.029 23.7664C8.53795 23.7664 6.22768 23.0545 4.28571 21.8283C4.64062 21.8679 4.98214 21.8811 5.34375 21.8811C7.39955 21.8811 9.28795 21.1955 10.7946 20.0352C8.86607 19.9957 7.24554 18.7497 6.68973 17.0358C7.36607 17.1346 7.97545 17.1346 8.67188 16.9567C6.66295 16.5545 5.15625 14.8142 5.15625 12.7113V12.6585C5.73884 12.9815 6.42187 13.1793 7.13839 13.2057C6.536 12.8112 6.04218 12.2761 5.70098 11.648C5.35979 11.02 5.18185 10.3185 5.18304 9.60632C5.18304 8.80207 5.39732 8.06374 5.77902 7.42429C7.94196 10.048 11.1897 11.762 14.8326 11.9466C14.2098 9.01302 16.4397 6.63322 19.1183 6.63322C20.3839 6.63322 21.5223 7.15401 22.3259 7.99781C23.317 7.81323 24.2679 7.45066 25.1116 6.95624C24.7835 7.95826 24.0938 8.80207 23.183 9.33604C24.067 9.24375 24.9241 8.99983 25.7143 8.66363C25.1183 9.52721 24.3683 10.2919 23.5112 10.905Z" fill="white" fill-opacity="0.75"/>
</svg>