<svg width="489" height="49" viewBox="0 0 489 49" fill="none" xmlns="http://www.w3.org/2000/svg">
<line opacity="0.2" x1="197.8" y1="21" x2="301.8" y2="21" stroke="#232D57" stroke-opacity="0.8" stroke-width="2"/>
<line opacity="0.2" x1="47.4" y1="21" x2="151.4" y2="20.9999" stroke="#232D57" stroke-opacity="0.8" stroke-width="2"/>
<line opacity="0.2" x1="349.8" y1="21" x2="453.8" y2="21" stroke="#232D57" stroke-opacity="0.8" stroke-width="2"/>
<g clip-path="url(#clip0_114_19)">
<path d="M198.05 25.0001C198.05 37.8407 187.641 48.2501 174.8 48.2501C161.959 48.2501 151.55 37.8407 151.55 25.0001C151.55 12.1594 161.959 1.75009 174.8 1.75009C187.641 1.75009 198.05 12.1594 198.05 25.0001ZM172.111 37.3108L189.361 20.0608C189.946 19.475 189.946 18.5252 189.361 17.9395L187.239 15.8182C186.654 15.2324 185.704 15.2324 185.118 15.8182L171.05 29.8862L164.482 23.3181C163.896 22.7324 162.946 22.7324 162.361 23.3181L160.239 25.4394C159.654 26.0252 159.654 26.9749 160.239 27.5607L169.989 37.3107C170.575 37.8965 171.525 37.8965 172.111 37.3108Z" fill="#232D57" fill-opacity="0.8"/>
</g>
<g clip-path="url(#clip1_114_19)">
<path d="M47.65 25.0001C47.65 37.8407 37.2407 48.2501 24.4 48.2501C11.5594 48.2501 1.15002 37.8407 1.15002 25.0001C1.15002 12.1594 11.5594 1.75009 24.4 1.75009C37.2407 1.75009 47.65 12.1594 47.65 25.0001ZM21.7107 37.3108L38.9607 20.0608C39.5465 19.475 39.5465 18.5252 38.9607 17.9395L36.8394 15.8182C36.2537 15.2324 35.3039 15.2324 34.7181 15.8182L20.65 29.8862L14.082 23.3181C13.4962 22.7324 12.5465 22.7324 11.9606 23.3181L9.83934 25.4394C9.25359 26.0252 9.25359 26.9749 9.83934 27.5607L19.5893 37.3107C20.1752 37.8965 21.1249 37.8965 21.7107 37.3108Z" fill="#232D57" fill-opacity="0.8"/>
</g>
<g clip-path="url(#clip2_114_19)">
<path d="M350.05 24.6001C350.05 37.4408 339.641 47.8501 326.8 47.8501C313.959 47.8501 303.55 37.4408 303.55 24.6001C303.55 11.7594 313.959 1.3501 326.8 1.3501C339.641 1.3501 350.05 11.7594 350.05 24.6001ZM324.111 36.9108L341.361 19.6608C341.946 19.075 341.946 18.1253 341.361 17.5395L339.239 15.4182C338.654 14.8324 337.704 14.8324 337.118 15.4182L323.05 29.4862L316.482 22.9181C315.896 22.3324 314.946 22.3324 314.361 22.9181L312.239 25.0394C311.654 25.6252 311.654 26.5749 312.239 27.1607L321.989 36.9107C322.575 37.4965 323.525 37.4965 324.111 36.9108Z" fill="#232D57" fill-opacity="0.8"/>
</g>
<path d="M487.65 24.6001C487.65 37.4408 477.241 47.8501 464.4 47.8501C451.559 47.8501 441.15 37.4408 441.15 24.6001C441.15 11.7594 451.559 1.3501 464.4 1.3501C477.241 1.3501 487.65 11.7594 487.65 24.6001ZM461.711 36.9108L478.961 19.6608C479.546 19.075 479.546 18.1253 478.961 17.5395L476.839 15.4182C476.254 14.8324 475.304 14.8324 474.718 15.4182L460.65 29.4862L454.082 22.9181C453.496 22.3324 452.546 22.3324 451.961 22.9181L449.839 25.0394C449.254 25.6252 449.254 26.5749 449.839 27.1607L459.589 36.9107C460.175 37.4965 461.125 37.4965 461.711 36.9108Z" fill="#232D57" fill-opacity="0.8"/>
<defs>
<clipPath id="clip0_114_19">
<rect width="48" height="48" fill="white" transform="translate(150.8 1.00009)"/>
</clipPath>
<clipPath id="clip1_114_19">
<rect width="48" height="48" fill="white" transform="translate(0.400024 1.00009)"/>
</clipPath>
<clipPath id="clip2_114_19">
<rect width="48" height="48" fill="white" transform="translate(302.8 0.600098)"/>
</clipPath>
</defs>
</svg>
